ISO-10303-21;
HEADER;
FILE_DESCRIPTION(('FreeCAD Model'),'2;1');
FILE_NAME('Open CASCADE Shape Model','2026-06-14T05:50:23',(''),(''),
  'Open CASCADE STEP processor 7.8','FreeCAD','Unknown');
FILE_SCHEMA(('AUTOMOTIVE_DESIGN { 1 0 10303 214 1 1 1 1 }'));
ENDSEC;
DATA;
#1 = APPLICATION_PROTOCOL_DEFINITION('international standard',
  'automotive_design',2000,#2);
#2 = APPLICATION_CONTEXT(
  'core data for automotive mechanical design processes');
#3 = SHAPE_DEFINITION_REPRESENTATION(#4,#10);
#4 = PRODUCT_DEFINITION_SHAPE('','',#5);
#5 = PRODUCT_DEFINITION('design','',#6,#9);
#6 = PRODUCT_DEFINITION_FORMATION('','',#7);
#7 = PRODUCT('Body','Body','',(#8));
#8 = PRODUCT_CONTEXT('',#2,'mechanical');
#9 = PRODUCT_DEFINITION_CONTEXT('part definition',#2,'design');
#10 = ADVANCED_BREP_SHAPE_REPRESENTATION('',(#11,#15),#956);
#11 = AXIS2_PLACEMENT_3D('',#12,#13,#14);
#12 = CARTESIAN_POINT('',(0.,0.,0.));
#13 = DIRECTION('',(0.,0.,1.));
#14 = DIRECTION('',(1.,0.,-0.));
#15 = MANIFOLD_SOLID_BREP('',#16);
#16 = CLOSED_SHELL('',(#17,#109,#144,#183,#238,#815,#843,#869,#896,#923,
    #950));
#17 = ADVANCED_FACE('',(#18),#32,.T.);
#18 = FACE_BOUND('',#19,.F.);
#19 = EDGE_LOOP('',(#20,#50,#77,#78));
#20 = ORIENTED_EDGE('',*,*,#21,.T.);
#21 = EDGE_CURVE('',#22,#24,#26,.T.);
#22 = VERTEX_POINT('',#23);
#23 = CARTESIAN_POINT('',(15.,0.,0.));
#24 = VERTEX_POINT('',#25);
#25 = CARTESIAN_POINT('',(15.,0.,2.4));
#26 = SEAM_CURVE('',#27,(#31,#43),.PCURVE_S1.);
#27 = LINE('',#28,#29);
#28 = CARTESIAN_POINT('',(15.,0.,0.));
#29 = VECTOR('',#30,1.);
#30 = DIRECTION('',(0.,0.,1.));
#31 = PCURVE('',#32,#37);
#32 = CYLINDRICAL_SURFACE('',#33,15.);
#33 = AXIS2_PLACEMENT_3D('',#34,#35,#36);
#34 = CARTESIAN_POINT('',(0.,0.,0.));
#35 = DIRECTION('',(-0.,-0.,-1.));
#36 = DIRECTION('',(1.,0.,0.));
#37 = DEFINITIONAL_REPRESENTATION('',(#38),#42);
#38 = LINE('',#39,#40);
#39 = CARTESIAN_POINT('',(-0.,0.));
#40 = VECTOR('',#41,1.);
#41 = DIRECTION('',(-0.,-1.));
#42 = ( GEOMETRIC_REPRESENTATION_CONTEXT(2) 
PARAMETRIC_REPRESENTATION_CONTEXT() REPRESENTATION_CONTEXT('2D SPACE',''
  ) );
#43 = PCURVE('',#32,#44);
#44 = DEFINITIONAL_REPRESENTATION('',(#45),#49);
#45 = LINE('',#46,#47);
#46 = CARTESIAN_POINT('',(-6.28318530718,0.));
#47 = VECTOR('',#48,1.);
#48 = DIRECTION('',(-0.,-1.));
#49 = ( GEOMETRIC_REPRESENTATION_CONTEXT(2) 
PARAMETRIC_REPRESENTATION_CONTEXT() REPRESENTATION_CONTEXT('2D SPACE',''
  ) );
#50 = ORIENTED_EDGE('',*,*,#51,.T.);
#51 = EDGE_CURVE('',#24,#24,#52,.T.);
#52 = SURFACE_CURVE('',#53,(#58,#65),.PCURVE_S1.);
#53 = CIRCLE('',#54,15.);
#54 = AXIS2_PLACEMENT_3D('',#55,#56,#57);
#55 = CARTESIAN_POINT('',(0.,0.,2.4));
#56 = DIRECTION('',(0.,0.,1.));
#57 = DIRECTION('',(1.,0.,0.));
#58 = PCURVE('',#32,#59);
#59 = DEFINITIONAL_REPRESENTATION('',(#60),#64);
#60 = LINE('',#61,#62);
#61 = CARTESIAN_POINT('',(-0.,-2.4));
#62 = VECTOR('',#63,1.);
#63 = DIRECTION('',(-1.,0.));
#64 = ( GEOMETRIC_REPRESENTATION_CONTEXT(2) 
PARAMETRIC_REPRESENTATION_CONTEXT() REPRESENTATION_CONTEXT('2D SPACE',''
  ) );
#65 = PCURVE('',#66,#71);
#66 = PLANE('',#67);
#67 = AXIS2_PLACEMENT_3D('',#68,#69,#70);
#68 = CARTESIAN_POINT('',(-7.29301404021E-16,1.169780044473E-16,2.4));
#69 = DIRECTION('',(0.,0.,1.));
#70 = DIRECTION('',(1.,0.,0.));
#71 = DEFINITIONAL_REPRESENTATION('',(#72),#76);
#72 = CIRCLE('',#73,15.);
#73 = AXIS2_PLACEMENT_2D('',#74,#75);
#74 = CARTESIAN_POINT('',(7.29301404021E-16,-1.169780044473E-16));
#75 = DIRECTION('',(1.,0.));
#76 = ( GEOMETRIC_REPRESENTATION_CONTEXT(2) 
PARAMETRIC_REPRESENTATION_CONTEXT() REPRESENTATION_CONTEXT('2D SPACE',''
  ) );
#77 = ORIENTED_EDGE('',*,*,#21,.F.);
#78 = ORIENTED_EDGE('',*,*,#79,.F.);
#79 = EDGE_CURVE('',#22,#22,#80,.T.);
#80 = SURFACE_CURVE('',#81,(#86,#93),.PCURVE_S1.);
#81 = CIRCLE('',#82,15.);
#82 = AXIS2_PLACEMENT_3D('',#83,#84,#85);
#83 = CARTESIAN_POINT('',(0.,0.,0.));
#84 = DIRECTION('',(0.,0.,1.));
#85 = DIRECTION('',(1.,0.,0.));
#86 = PCURVE('',#32,#87);
#87 = DEFINITIONAL_REPRESENTATION('',(#88),#92);
#88 = LINE('',#89,#90);
#89 = CARTESIAN_POINT('',(-0.,0.));
#90 = VECTOR('',#91,1.);
#91 = DIRECTION('',(-1.,0.));
#92 = ( GEOMETRIC_REPRESENTATION_CONTEXT(2) 
PARAMETRIC_REPRESENTATION_CONTEXT() REPRESENTATION_CONTEXT('2D SPACE',''
  ) );
#93 = PCURVE('',#94,#99);
#94 = PLANE('',#95);
#95 = AXIS2_PLACEMENT_3D('',#96,#97,#98);
#96 = CARTESIAN_POINT('',(-7.29301404021E-16,1.169780044473E-16,0.));
#97 = DIRECTION('',(-0.,-0.,-1.));
#98 = DIRECTION('',(-1.,0.,0.));
#99 = DEFINITIONAL_REPRESENTATION('',(#100),#108);
#100 = ( BOUNDED_CURVE() B_SPLINE_CURVE(2,(#101,#102,#103,#104,#105,#106
,#107),.UNSPECIFIED.,.T.,.F.) B_SPLINE_CURVE_WITH_KNOTS((1,2,2,2,2,1),(
    -2.094395102393,0.,2.094395102393,4.188790204786,6.28318530718,
8.377580409573),.UNSPECIFIED.) CURVE() GEOMETRIC_REPRESENTATION_ITEM() 
RATIONAL_B_SPLINE_CURVE((1.,0.5,1.,0.5,1.,0.5,1.)) REPRESENTATION_ITEM(
  '') );
#101 = CARTESIAN_POINT('',(-15.,-1.169780044473E-16));
#102 = CARTESIAN_POINT('',(-15.,25.980762113533));
#103 = CARTESIAN_POINT('',(7.5,12.990381056767));
#104 = CARTESIAN_POINT('',(30.,3.556962392995E-15));
#105 = CARTESIAN_POINT('',(7.5,-12.99038105676));
#106 = CARTESIAN_POINT('',(-15.,-25.98076211353));
#107 = CARTESIAN_POINT('',(-15.,-1.169780044473E-16));
#108 = ( GEOMETRIC_REPRESENTATION_CONTEXT(2) 
PARAMETRIC_REPRESENTATION_CONTEXT() REPRESENTATION_CONTEXT('2D SPACE',''
  ) );
#109 = ADVANCED_FACE('',(#110,#113),#94,.T.);
#110 = FACE_BOUND('',#111,.T.);
#111 = EDGE_LOOP('',(#112));
#112 = ORIENTED_EDGE('',*,*,#79,.F.);
#113 = FACE_BOUND('',#114,.T.);
#114 = EDGE_LOOP('',(#115));
#115 = ORIENTED_EDGE('',*,*,#116,.F.);
#116 = EDGE_CURVE('',#117,#117,#119,.T.);
#117 = VERTEX_POINT('',#118);
#118 = CARTESIAN_POINT('',(-3.,0.,0.));
#119 = SURFACE_CURVE('',#120,(#125,#132),.PCURVE_S1.);
#120 = CIRCLE('',#121,3.);
#121 = AXIS2_PLACEMENT_3D('',#122,#123,#124);
#122 = CARTESIAN_POINT('',(0.,0.,0.));
#123 = DIRECTION('',(0.,0.,-1.));
#124 = DIRECTION('',(-1.,0.,0.));
#125 = PCURVE('',#94,#126);
#126 = DEFINITIONAL_REPRESENTATION('',(#127),#131);
#127 = CIRCLE('',#128,3.);
#128 = AXIS2_PLACEMENT_2D('',#129,#130);
#129 = CARTESIAN_POINT('',(-7.29301404021E-16,-1.169780044473E-16));
#130 = DIRECTION('',(1.,0.));
#131 = ( GEOMETRIC_REPRESENTATION_CONTEXT(2) 
PARAMETRIC_REPRESENTATION_CONTEXT() REPRESENTATION_CONTEXT('2D SPACE',''
  ) );
#132 = PCURVE('',#133,#138);
#133 = CYLINDRICAL_SURFACE('',#134,3.);
#134 = AXIS2_PLACEMENT_3D('',#135,#136,#137);
#135 = CARTESIAN_POINT('',(0.,0.,0.));
#136 = DIRECTION('',(0.,0.,1.));
#137 = DIRECTION('',(-1.,0.,0.));
#138 = DEFINITIONAL_REPRESENTATION('',(#139),#143);
#139 = LINE('',#140,#141);
#140 = CARTESIAN_POINT('',(-0.,0.));
#141 = VECTOR('',#142,1.);
#142 = DIRECTION('',(-1.,0.));
#143 = ( GEOMETRIC_REPRESENTATION_CONTEXT(2) 
PARAMETRIC_REPRESENTATION_CONTEXT() REPRESENTATION_CONTEXT('2D SPACE',''
  ) );
#144 = ADVANCED_FACE('',(#145,#148),#66,.T.);
#145 = FACE_BOUND('',#146,.T.);
#146 = EDGE_LOOP('',(#147));
#147 = ORIENTED_EDGE('',*,*,#51,.T.);
#148 = FACE_BOUND('',#149,.T.);
#149 = EDGE_LOOP('',(#150));
#150 = ORIENTED_EDGE('',*,*,#151,.T.);
#151 = EDGE_CURVE('',#152,#152,#154,.T.);
#152 = VERTEX_POINT('',#153);
#153 = CARTESIAN_POINT('',(14.,0.,2.4));
#154 = SURFACE_CURVE('',#155,(#160,#171),.PCURVE_S1.);
#155 = CIRCLE('',#156,14.);
#156 = AXIS2_PLACEMENT_3D('',#157,#158,#159);
#157 = CARTESIAN_POINT('',(0.,0.,2.4));
#158 = DIRECTION('',(0.,0.,-1.));
#159 = DIRECTION('',(1.,0.,0.));
#160 = PCURVE('',#66,#161);
#161 = DEFINITIONAL_REPRESENTATION('',(#162),#170);
#162 = ( BOUNDED_CURVE() B_SPLINE_CURVE(2,(#163,#164,#165,#166,#167,#168
,#169),.UNSPECIFIED.,.T.,.F.) B_SPLINE_CURVE_WITH_KNOTS((1,2,2,2,2,1),(
    -2.094395102393,0.,2.094395102393,4.188790204786,6.28318530718,
8.377580409573),.UNSPECIFIED.) CURVE() GEOMETRIC_REPRESENTATION_ITEM() 
RATIONAL_B_SPLINE_CURVE((1.,0.5,1.,0.5,1.,0.5,1.)) REPRESENTATION_ITEM(
  '') );
#163 = CARTESIAN_POINT('',(14.,-1.169780044473E-16));
#164 = CARTESIAN_POINT('',(14.,-24.24871130596));
#165 = CARTESIAN_POINT('',(-7.,-12.12435565298));
#166 = CARTESIAN_POINT('',(-28.,-3.54598904206E-15));
#167 = CARTESIAN_POINT('',(-7.,12.124355652982));
#168 = CARTESIAN_POINT('',(14.,24.248711305964));
#169 = CARTESIAN_POINT('',(14.,-1.169780044473E-16));
#170 = ( GEOMETRIC_REPRESENTATION_CONTEXT(2) 
PARAMETRIC_REPRESENTATION_CONTEXT() REPRESENTATION_CONTEXT('2D SPACE',''
  ) );
#171 = PCURVE('',#172,#177);
#172 = CYLINDRICAL_SURFACE('',#173,14.);
#173 = AXIS2_PLACEMENT_3D('',#174,#175,#176);
#174 = CARTESIAN_POINT('',(0.,0.,0.));
#175 = DIRECTION('',(-0.,-0.,-1.));
#176 = DIRECTION('',(1.,0.,0.));
#177 = DEFINITIONAL_REPRESENTATION('',(#178),#182);
#178 = LINE('',#179,#180);
#179 = CARTESIAN_POINT('',(-6.28318530718,-2.4));
#180 = VECTOR('',#181,1.);
#181 = DIRECTION('',(1.,-0.));
#182 = ( GEOMETRIC_REPRESENTATION_CONTEXT(2) 
PARAMETRIC_REPRESENTATION_CONTEXT() REPRESENTATION_CONTEXT('2D SPACE',''
  ) );
#183 = ADVANCED_FACE('',(#184),#133,.F.);
#184 = FACE_BOUND('',#185,.T.);
#185 = EDGE_LOOP('',(#186,#209,#210,#211));
#186 = ORIENTED_EDGE('',*,*,#187,.F.);
#187 = EDGE_CURVE('',#117,#188,#190,.T.);
#188 = VERTEX_POINT('',#189);
#189 = CARTESIAN_POINT('',(-3.,0.,50.5));
#190 = SEAM_CURVE('',#191,(#195,#202),.PCURVE_S1.);
#191 = LINE('',#192,#193);
#192 = CARTESIAN_POINT('',(-3.,0.,0.));
#193 = VECTOR('',#194,1.);
#194 = DIRECTION('',(6.155692017724E-17,0.,1.));
#195 = PCURVE('',#133,#196);
#196 = DEFINITIONAL_REPRESENTATION('',(#197),#201);
#197 = LINE('',#198,#199);
#198 = CARTESIAN_POINT('',(-0.,0.));
#199 = VECTOR('',#200,1.);
#200 = DIRECTION('',(-0.,1.));
#201 = ( GEOMETRIC_REPRESENTATION_CONTEXT(2) 
PARAMETRIC_REPRESENTATION_CONTEXT() REPRESENTATION_CONTEXT('2D SPACE',''
  ) );
#202 = PCURVE('',#133,#203);
#203 = DEFINITIONAL_REPRESENTATION('',(#204),#208);
#204 = LINE('',#205,#206);
#205 = CARTESIAN_POINT('',(-6.28318530718,0.));
#206 = VECTOR('',#207,1.);
#207 = DIRECTION('',(-0.,1.));
#208 = ( GEOMETRIC_REPRESENTATION_CONTEXT(2) 
PARAMETRIC_REPRESENTATION_CONTEXT() REPRESENTATION_CONTEXT('2D SPACE',''
  ) );
#209 = ORIENTED_EDGE('',*,*,#116,.T.);
#210 = ORIENTED_EDGE('',*,*,#187,.T.);
#211 = ORIENTED_EDGE('',*,*,#212,.F.);
#212 = EDGE_CURVE('',#188,#188,#213,.T.);
#213 = SURFACE_CURVE('',#214,(#219,#226),.PCURVE_S1.);
#214 = CIRCLE('',#215,3.);
#215 = AXIS2_PLACEMENT_3D('',#216,#217,#218);
#216 = CARTESIAN_POINT('',(0.,0.,50.5));
#217 = DIRECTION('',(0.,0.,-1.));
#218 = DIRECTION('',(-1.,0.,0.));
#219 = PCURVE('',#133,#220);
#220 = DEFINITIONAL_REPRESENTATION('',(#221),#225);
#221 = LINE('',#222,#223);
#222 = CARTESIAN_POINT('',(-0.,50.5));
#223 = VECTOR('',#224,1.);
#224 = DIRECTION('',(-1.,0.));
#225 = ( GEOMETRIC_REPRESENTATION_CONTEXT(2) 
PARAMETRIC_REPRESENTATION_CONTEXT() REPRESENTATION_CONTEXT('2D SPACE',''
  ) );
#226 = PCURVE('',#227,#232);
#227 = CONICAL_SURFACE('',#228,3.,1.029744258677);
#228 = AXIS2_PLACEMENT_3D('',#229,#230,#231);
#229 = CARTESIAN_POINT('',(0.,0.,50.5));
#230 = DIRECTION('',(-0.,-0.,-1.));
#231 = DIRECTION('',(-1.,0.,0.));
#232 = DEFINITIONAL_REPRESENTATION('',(#233),#237);
#233 = LINE('',#234,#235);
#234 = CARTESIAN_POINT('',(0.,-0.));
#235 = VECTOR('',#236,1.);
#236 = DIRECTION('',(1.,-0.));
#237 = ( GEOMETRIC_REPRESENTATION_CONTEXT(2) 
PARAMETRIC_REPRESENTATION_CONTEXT() REPRESENTATION_CONTEXT('2D SPACE',''
  ) );
#238 = ADVANCED_FACE('',(#239),#172,.T.);
#239 = FACE_BOUND('',#240,.F.);
#240 = EDGE_LOOP('',(#241,#264,#265,#266,#289,#324,#409,#438,#523,#565,
    #602,#682,#706,#786,#814));
#241 = ORIENTED_EDGE('',*,*,#242,.F.);
#242 = EDGE_CURVE('',#152,#243,#245,.T.);
#243 = VERTEX_POINT('',#244);
#244 = CARTESIAN_POINT('',(14.,0.,2.5));
#245 = SEAM_CURVE('',#246,(#250,#257),.PCURVE_S1.);
#246 = LINE('',#247,#248);
#247 = CARTESIAN_POINT('',(14.,0.,0.));
#248 = VECTOR('',#249,1.);
#249 = DIRECTION('',(0.,0.,1.));
#250 = PCURVE('',#172,#251);
#251 = DEFINITIONAL_REPRESENTATION('',(#252),#256);
#252 = LINE('',#253,#254);
#253 = CARTESIAN_POINT('',(-6.28318530718,0.));
#254 = VECTOR('',#255,1.);
#255 = DIRECTION('',(-0.,-1.));
#256 = ( GEOMETRIC_REPRESENTATION_CONTEXT(2) 
PARAMETRIC_REPRESENTATION_CONTEXT() REPRESENTATION_CONTEXT('2D SPACE',''
  ) );
#257 = PCURVE('',#172,#258);
#258 = DEFINITIONAL_REPRESENTATION('',(#259),#263);
#259 = LINE('',#260,#261);
#260 = CARTESIAN_POINT('',(-0.,0.));
#261 = VECTOR('',#262,1.);
#262 = DIRECTION('',(-0.,-1.));
#263 = ( GEOMETRIC_REPRESENTATION_CONTEXT(2) 
PARAMETRIC_REPRESENTATION_CONTEXT() REPRESENTATION_CONTEXT('2D SPACE',''
  ) );
#264 = ORIENTED_EDGE('',*,*,#151,.T.);
#265 = ORIENTED_EDGE('',*,*,#242,.T.);
#266 = ORIENTED_EDGE('',*,*,#267,.T.);
#267 = EDGE_CURVE('',#243,#268,#270,.T.);
#268 = VERTEX_POINT('',#269);
#269 = CARTESIAN_POINT('',(14.,0.,55.));
#270 = SEAM_CURVE('',#271,(#275,#282),.PCURVE_S1.);
#271 = LINE('',#272,#273);
#272 = CARTESIAN_POINT('',(14.,0.,0.));
#273 = VECTOR('',#274,1.);
#274 = DIRECTION('',(0.,0.,1.));
#275 = PCURVE('',#172,#276);
#276 = DEFINITIONAL_REPRESENTATION('',(#277),#281);
#277 = LINE('',#278,#279);
#278 = CARTESIAN_POINT('',(-6.28318530718,0.));
#279 = VECTOR('',#280,1.);
#280 = DIRECTION('',(-0.,-1.));
#281 = ( GEOMETRIC_REPRESENTATION_CONTEXT(2) 
PARAMETRIC_REPRESENTATION_CONTEXT() REPRESENTATION_CONTEXT('2D SPACE',''
  ) );
#282 = PCURVE('',#172,#283);
#283 = DEFINITIONAL_REPRESENTATION('',(#284),#288);
#284 = LINE('',#285,#286);
#285 = CARTESIAN_POINT('',(-0.,0.));
#286 = VECTOR('',#287,1.);
#287 = DIRECTION('',(-0.,-1.));
#288 = ( GEOMETRIC_REPRESENTATION_CONTEXT(2) 
PARAMETRIC_REPRESENTATION_CONTEXT() REPRESENTATION_CONTEXT('2D SPACE',''
  ) );
#289 = ORIENTED_EDGE('',*,*,#290,.F.);
#290 = EDGE_CURVE('',#291,#268,#293,.T.);
#291 = VERTEX_POINT('',#292);
#292 = CARTESIAN_POINT('',(3.496224920607,13.556415872366,
    113.35430599663));
#293 = SURFACE_CURVE('',#294,(#299,#312),.PCURVE_S1.);
#294 = ELLIPSE('',#295,79.027733841034,14.);
#295 = AXIS2_PLACEMENT_3D('',#296,#297,#298);
#296 = CARTESIAN_POINT('',(0.,0.,132.77777777777));
#297 = DIRECTION('',(-0.984183323974,-0.,-0.177152998315));
#298 = DIRECTION('',(0.177152998315,0.,-0.984183323974));
#299 = PCURVE('',#172,#300);
#300 = DEFINITIONAL_REPRESENTATION('',(#301),#311);
#301 = B_SPLINE_CURVE_WITH_KNOTS('',8,(#302,#303,#304,#305,#306,#307,
    #308,#309,#310),.UNSPECIFIED.,.F.,.F.,(9,9),(4.942984131371,
    6.28318530718),.PIECEWISE_BEZIER_KNOTS.);
#302 = CARTESIAN_POINT('',(-1.340201175808,-115.0011252056));
#303 = CARTESIAN_POINT('',(-1.172676028832,-102.3162815458));
#304 = CARTESIAN_POINT('',(-1.005150881855,-90.20160394407));
#305 = CARTESIAN_POINT('',(-0.837625734881,-79.19956959673));
#306 = CARTESIAN_POINT('',(-0.670100587904,-69.81848073814));
#307 = CARTESIAN_POINT('',(-0.502575440929,-62.48390923722));
#308 = CARTESIAN_POINT('',(-0.335050293952,-57.49463845531));
#309 = CARTESIAN_POINT('',(-0.167525146976,-55.));
#310 = CARTESIAN_POINT('',(-2.449293598295E-16,-55.));
#311 = ( GEOMETRIC_REPRESENTATION_CONTEXT(2) 
PARAMETRIC_REPRESENTATION_CONTEXT() REPRESENTATION_CONTEXT('2D SPACE',''
  ) );
#312 = PCURVE('',#313,#318);
#313 = PLANE('',#314);
#314 = AXIS2_PLACEMENT_3D('',#315,#316,#317);
#315 = CARTESIAN_POINT('',(8.748112460303,0.,84.177152998315));
#316 = DIRECTION('',(-0.984183323974,-0.,-0.177152998315));
#317 = DIRECTION('',(0.177152998315,0.,-0.984183323974));
#318 = DEFINITIONAL_REPRESENTATION('',(#319),#323);
#319 = ELLIPSE('',#320,79.027733841034,14.);
#320 = AXIS2_PLACEMENT_2D('',#321,#322);
#321 = CARTESIAN_POINT('',(-49.38167879459,0.));
#322 = DIRECTION('',(1.,0.));
#323 = ( GEOMETRIC_REPRESENTATION_CONTEXT(2) 
PARAMETRIC_REPRESENTATION_CONTEXT() REPRESENTATION_CONTEXT('2D SPACE',''
  ) );
#324 = ORIENTED_EDGE('',*,*,#325,.T.);
#325 = EDGE_CURVE('',#291,#326,#328,.T.);
#326 = VERTEX_POINT('',#327);
#327 = CARTESIAN_POINT('',(1.527858272659,13.916380603399,115.));
#328 = SURFACE_CURVE('',#329,(#352,#378),.PCURVE_S1.);
#329 = B_SPLINE_CURVE_WITH_KNOTS('',6,(#330,#331,#332,#333,#334,#335,
    #336,#337,#338,#339,#340,#341,#342,#343,#344,#345,#346,#347,#348,
    #349,#350,#351),.UNSPECIFIED.,.F.,.F.,(7,5,5,5,7),(0.,0.460102048089
    ,0.639625491939,0.779896973318,1.),.UNSPECIFIED.);
#330 = CARTESIAN_POINT('',(3.496224920607,13.556415872366,
    113.35430599663));
#331 = CARTESIAN_POINT('',(3.46304255904,13.564973665261,113.53865244977
    ));
#332 = CARTESIAN_POINT('',(3.408895108491,13.578834688039,
    113.72064087157));
#333 = CARTESIAN_POINT('',(3.333508147206,13.597822059992,
    113.89849520562));
#334 = CARTESIAN_POINT('',(3.236258478352,13.621593053001,114.0700930731
    ));
#335 = CARTESIAN_POINT('',(3.116399488467,13.649523203633,
    114.23263076578));
#336 = CARTESIAN_POINT('',(2.91753614881,13.692744256738,114.44059630522
    ));
#337 = CARTESIAN_POINT('',(2.858176103538,13.705359410388,
    114.49701099001));
#338 = CARTESIAN_POINT('',(2.795257660188,13.718394833157,
    114.55121142214));
#339 = CARTESIAN_POINT('',(2.728784308919,13.731775573017,
    114.60291651312));
#340 = CARTESIAN_POINT('',(2.658777935768,13.745417144414,
    114.65182277615));
#341 = CARTESIAN_POINT('',(2.52785289529,13.770017214873,114.73337481682
    ));
#342 = CARTESIAN_POINT('',(2.468287232727,13.780911478914,
    114.76724198696));
#343 = CARTESIAN_POINT('',(2.406651753059,13.791856363253,
    114.79901779522));
#344 = CARTESIAN_POINT('',(2.343029080651,13.802795889539,
    114.82851957191));
#345 = CARTESIAN_POINT('',(2.277516395823,13.813673039985,
    114.85556926011));
#346 = CARTESIAN_POINT('',(2.104638227527,13.841312495683,
    114.91831757899));
#347 = CARTESIAN_POINT('',(1.994496906428,13.857929647412,
    114.95024102336));
#348 = CARTESIAN_POINT('',(1.880694255326,13.873983037412,
    114.97487593439));
#349 = CARTESIAN_POINT('',(1.76425152549,13.889204256205,114.99158770107
    ));
#350 = CARTESIAN_POINT('',(1.646265984897,13.90338080066,115.));
#351 = CARTESIAN_POINT('',(1.527858272659,13.916380603399,115.));
#352 = PCURVE('',#172,#353);
#353 = DEFINITIONAL_REPRESENTATION('',(#354),#377);
#354 = B_SPLINE_CURVE_WITH_KNOTS('',6,(#355,#356,#357,#358,#359,#360,
    #361,#362,#363,#364,#365,#366,#367,#368,#369,#370,#371,#372,#373,
    #374,#375,#376),.UNSPECIFIED.,.F.,.F.,(7,5,5,5,7),(0.,0.460102048089
    ,0.639625491939,0.779896973318,1.),.UNSPECIFIED.);
#355 = CARTESIAN_POINT('',(-1.318394553447,-113.3543059966));
#356 = CARTESIAN_POINT('',(-1.320842277231,-113.5386524497));
#357 = CARTESIAN_POINT('',(-1.324834658895,-113.7206408715));
#358 = CARTESIAN_POINT('',(-1.330387542986,-113.8984952056));
#359 = CARTESIAN_POINT('',(-1.337538139408,-114.0700930731));
#360 = CARTESIAN_POINT('',(-1.346327888845,-114.2326307657));
#361 = CARTESIAN_POINT('',(-1.360864030869,-114.4405963052));
#362 = CARTESIAN_POINT('',(-1.365198679449,-114.49701099));
#363 = CARTESIAN_POINT('',(-1.369788198466,-114.5512114221));
#364 = CARTESIAN_POINT('',(-1.374631406076,-114.6029165131));
#365 = CARTESIAN_POINT('',(-1.379725798181,-114.6518227761));
#366 = CARTESIAN_POINT('',(-1.389241234,-114.7333748168));
#367 = CARTESIAN_POINT('',(-1.393566449457,-114.7672419869));
#368 = CARTESIAN_POINT('',(-1.398037764262,-114.7990177952));
#369 = CARTESIAN_POINT('',(-1.402648819757,-114.8285195719));
#370 = CARTESIAN_POINT('',(-1.407392271476,-114.8555692601));
#371 = CARTESIAN_POINT('',(-1.419897535793,-114.9183175789));
#372 = CARTESIAN_POINT('',(-1.427853502857,-114.9502410233));
#373 = CARTESIAN_POINT('',(-1.436062142995,-114.9748759343));
#374 = CARTESIAN_POINT('',(-1.444449575649,-114.991587701));
#375 = CARTESIAN_POINT('',(-1.452937282592,-115.));
#376 = CARTESIAN_POINT('',(-1.461445796092,-115.));
#377 = ( GEOMETRIC_REPRESENTATION_CONTEXT(2) 
PARAMETRIC_REPRESENTATION_CONTEXT() REPRESENTATION_CONTEXT('2D SPACE',''
  ) );
#378 = PCURVE('',#379,#384);
#379 = CYLINDRICAL_SURFACE('',#380,2.);
#380 = AXIS2_PLACEMENT_3D('',#381,#382,#383);
#381 = CARTESIAN_POINT('',(1.527858272659,2.509104035653E-14,113.));
#382 = DIRECTION('',(0.,-1.,2.22044604925E-16));
#383 = DIRECTION('',(1.,0.,0.));
#384 = DEFINITIONAL_REPRESENTATION('',(#385),#408);
#385 = B_SPLINE_CURVE_WITH_KNOTS('',6,(#386,#387,#388,#389,#390,#391,
    #392,#393,#394,#395,#396,#397,#398,#399,#400,#401,#402,#403,#404,
    #405,#406,#407),.UNSPECIFIED.,.F.,.F.,(7,5,5,5,7),(0.,0.460102048089
    ,0.639625491939,0.779896973318,1.),.UNSPECIFIED.);
#386 = CARTESIAN_POINT('',(0.178092938231,-13.55641587236));
#387 = CARTESIAN_POINT('',(0.271747468162,-13.56497366526));
#388 = CARTESIAN_POINT('',(0.366099233261,-13.57883468803));
#389 = CARTESIAN_POINT('',(0.461773297479,-13.59782205999));
#390 = CARTESIAN_POINT('',(0.559381659037,-13.621593053));
#391 = CARTESIAN_POINT('',(0.659537058559,-13.64952320363));
#392 = CARTESIAN_POINT('',(0.803408783938,-13.69274425673));
#393 = CARTESIAN_POINT('',(0.844307765739,-13.70535941038));
#394 = CARTESIAN_POINT('',(0.885754839459,-13.71839483315));
#395 = CARTESIAN_POINT('',(0.927780702621,-13.73177557301));
#396 = CARTESIAN_POINT('',(0.970420144231,-13.74541714441));
#397 = CARTESIAN_POINT('',(1.047543586778,-13.77001721487));
#398 = CARTESIAN_POINT('',(1.081776276792,-13.78091147891));
#399 = CARTESIAN_POINT('',(1.116404243567,-13.79185636325));
#400 = CARTESIAN_POINT('',(1.151422075778,-13.80279588953));
#401 = CARTESIAN_POINT('',(1.18682739126,-13.81367303998));
#402 = CARTESIAN_POINT('',(1.278784191709,-13.84131249568));
#403 = CARTESIAN_POINT('',(1.335996284582,-13.85792964741));
#404 = CARTESIAN_POINT('',(1.394004818451,-13.87398303741));
#405 = CARTESIAN_POINT('',(1.452599684543,-13.8892042562));
#406 = CARTESIAN_POINT('',(1.511592470676,-13.90338080066));
#407 = CARTESIAN_POINT('',(1.570796326795,-13.91638060339));
#408 = ( GEOMETRIC_REPRESENTATION_CONTEXT(2) 
PARAMETRIC_REPRESENTATION_CONTEXT() REPRESENTATION_CONTEXT('2D SPACE',''
  ) );
#409 = ORIENTED_EDGE('',*,*,#410,.T.);
#410 = EDGE_CURVE('',#326,#411,#413,.T.);
#411 = VERTEX_POINT('',#412);
#412 = CARTESIAN_POINT('',(-1.527858272659,13.916380603399,115.));
#413 = SURFACE_CURVE('',#414,(#419,#426),.PCURVE_S1.);
#414 = CIRCLE('',#415,14.);
#415 = AXIS2_PLACEMENT_3D('',#416,#417,#418);
#416 = CARTESIAN_POINT('',(0.,0.,115.));
#417 = DIRECTION('',(0.,0.,1.));
#418 = DIRECTION('',(1.,0.,0.));
#419 = PCURVE('',#172,#420);
#420 = DEFINITIONAL_REPRESENTATION('',(#421),#425);
#421 = LINE('',#422,#423);
#422 = CARTESIAN_POINT('',(-0.,-115.));
#423 = VECTOR('',#424,1.);
#424 = DIRECTION('',(-1.,0.));
#425 = ( GEOMETRIC_REPRESENTATION_CONTEXT(2) 
PARAMETRIC_REPRESENTATION_CONTEXT() REPRESENTATION_CONTEXT('2D SPACE',''
  ) );
#426 = PCURVE('',#427,#432);
#427 = PLANE('',#428);
#428 = AXIS2_PLACEMENT_3D('',#429,#430,#431);
#429 = CARTESIAN_POINT('',(-3.906971807255E-16,9.912868833001E-16,115.)
  );
#430 = DIRECTION('',(0.,0.,1.));
#431 = DIRECTION('',(1.,0.,0.));
#432 = DEFINITIONAL_REPRESENTATION('',(#433),#437);
#433 = CIRCLE('',#434,14.);
#434 = AXIS2_PLACEMENT_2D('',#435,#436);
#435 = CARTESIAN_POINT('',(3.906971807255E-16,-9.912868833001E-16));
#436 = DIRECTION('',(1.,0.));
#437 = ( GEOMETRIC_REPRESENTATION_CONTEXT(2) 
PARAMETRIC_REPRESENTATION_CONTEXT() REPRESENTATION_CONTEXT('2D SPACE',''
  ) );
#438 = ORIENTED_EDGE('',*,*,#439,.T.);
#439 = EDGE_CURVE('',#411,#440,#442,.T.);
#440 = VERTEX_POINT('',#441);
#441 = CARTESIAN_POINT('',(-3.496224920607,13.556415872366,
    113.35430599663));
#442 = SURFACE_CURVE('',#443,(#466,#492),.PCURVE_S1.);
#443 = B_SPLINE_CURVE_WITH_KNOTS('',6,(#444,#445,#446,#447,#448,#449,
    #450,#451,#452,#453,#454,#455,#456,#457,#458,#459,#460,#461,#462,
    #463,#464,#465),.UNSPECIFIED.,.F.,.F.,(7,5,5,5,7),(0.,0.211121857522
    ,0.360529700876,0.540125011817,1.),.UNSPECIFIED.);
#444 = CARTESIAN_POINT('',(-1.527858272659,13.916380603399,115.));
#445 = CARTESIAN_POINT('',(-1.641369725229,13.903918353566,115.));
#446 = CARTESIAN_POINT('',(-1.754514396978,13.890372290119,
    114.99226903603));
#447 = CARTESIAN_POINT('',(-1.866292524926,13.87585951331,
    114.97690107077));
#448 = CARTESIAN_POINT('',(-1.975723314807,13.860565698137,
    114.95421838715));
#449 = CARTESIAN_POINT('',(-2.081888778259,13.844725392365,
    114.92476732544));
#450 = CARTESIAN_POINT('',(-2.256224311229,13.81719224874,
    114.86422423617));
#451 = CARTESIAN_POINT('',(-2.326495793098,13.805629897475,
    114.83610534662));
#452 = CARTESIAN_POINT('',(-2.394650283183,13.793983544897,
    114.80516553073));
#453 = CARTESIAN_POINT('',(-2.460565206038,13.782322618065,
    114.7716196615));
#454 = CARTESIAN_POINT('',(-2.524136917263,13.770715426009,
    114.73568946641));
#455 = CARTESIAN_POINT('',(-2.658777935768,13.745417144414,
    114.65182277615));
#456 = CARTESIAN_POINT('',(-2.728784308919,13.731775573017,
    114.60291651312));
#457 = CARTESIAN_POINT('',(-2.795257660188,13.718394833157,
    114.55121142214));
#458 = CARTESIAN_POINT('',(-2.858176103538,13.705359410388,
    114.49701099001));
#459 = CARTESIAN_POINT('',(-2.91753614881,13.692744256738,
    114.44059630522));
#460 = CARTESIAN_POINT('',(-3.116271680003,13.649550981585,
    114.23276442418));
#461 = CARTESIAN_POINT('',(-3.236171997909,13.621615268348,
    114.07025015613));
#462 = CARTESIAN_POINT('',(-3.333525953184,13.597818720219,
    113.89853874237));
#463 = CARTESIAN_POINT('',(-3.408971087092,13.578815279422,
    113.72050521231));
#464 = CARTESIAN_POINT('',(-3.46308272264,13.564963306993,
    113.53842931866));
#465 = CARTESIAN_POINT('',(-3.496224920607,13.556415872366,
    113.35430599663));
#466 = PCURVE('',#172,#467);
#467 = DEFINITIONAL_REPRESENTATION('',(#468),#491);
#468 = B_SPLINE_CURVE_WITH_KNOTS('',6,(#469,#470,#471,#472,#473,#474,
    #475,#476,#477,#478,#479,#480,#481,#482,#483,#484,#485,#486,#487,
    #488,#489,#490),.UNSPECIFIED.,.F.,.F.,(7,5,5,5,7),(0.,0.211121857522
    ,0.360529700876,0.540125011817,1.),.UNSPECIFIED.);
#469 = CARTESIAN_POINT('',(-1.680146857498,-115.));
#470 = CARTESIAN_POINT('',(-1.688303536724,-115.));
#471 = CARTESIAN_POINT('',(-1.69644261891,-114.992269036));
#472 = CARTESIAN_POINT('',(-1.704493198652,-114.9769010707));
#473 = CARTESIAN_POINT('',(-1.712385119192,-114.9542183871));
#474 = CARTESIAN_POINT('',(-1.72005203462,-114.9247673254));
#475 = CARTESIAN_POINT('',(-1.732658914839,-114.8642242361));
#476 = CARTESIAN_POINT('',(-1.737745691572,-114.8361053466));
#477 = CARTESIAN_POINT('',(-1.742684299601,-114.8051655307));
#478 = CARTESIAN_POINT('',(-1.747465503492,-114.7716196615));
#479 = CARTESIAN_POINT('',(-1.752081347873,-114.7356894664));
#480 = CARTESIAN_POINT('',(-1.761866855409,-114.6518227761));
#481 = CARTESIAN_POINT('',(-1.766961247514,-114.6029165131));
#482 = CARTESIAN_POINT('',(-1.771804455123,-114.5512114221));
#483 = CARTESIAN_POINT('',(-1.776393974141,-114.49701099));
#484 = CARTESIAN_POINT('',(-1.780728622721,-114.4405963052));
#485 = CARTESIAN_POINT('',(-1.79525542244,-114.2327644241));
#486 = CARTESIAN_POINT('',(-1.804048140428,-114.0702501561));
#487 = CARTESIAN_POINT('',(-1.811206400447,-113.8985387423));
#488 = CARTESIAN_POINT('',(-1.81676359635,-113.7205052123));
#489 = CARTESIAN_POINT('',(-1.820753339059,-113.5384293186));
#490 = CARTESIAN_POINT('',(-1.823198100143,-113.3543059966));
#491 = ( GEOMETRIC_REPRESENTATION_CONTEXT(2) 
PARAMETRIC_REPRESENTATION_CONTEXT() REPRESENTATION_CONTEXT('2D SPACE',''
  ) );
#492 = PCURVE('',#493,#498);
#493 = CYLINDRICAL_SURFACE('',#494,2.);
#494 = AXIS2_PLACEMENT_3D('',#495,#496,#497);
#495 = CARTESIAN_POINT('',(-1.527858272659,2.509104035653E-14,113.));
#496 = DIRECTION('',(0.,-1.,2.22044604925E-16));
#497 = DIRECTION('',(1.,0.,0.));
#498 = DEFINITIONAL_REPRESENTATION('',(#499),#522);
#499 = B_SPLINE_CURVE_WITH_KNOTS('',6,(#500,#501,#502,#503,#504,#505,
    #506,#507,#508,#509,#510,#511,#512,#513,#514,#515,#516,#517,#518,
    #519,#520,#521),.UNSPECIFIED.,.F.,.F.,(7,5,5,5,7),(0.,0.211121857522
    ,0.360529700876,0.540125011817,1.),.UNSPECIFIED.);
#500 = CARTESIAN_POINT('',(1.570796326795,-13.91638060339));
#501 = CARTESIAN_POINT('',(1.62755205308,-13.90391835356));
#502 = CARTESIAN_POINT('',(1.684124398606,-13.89037229011));
#503 = CARTESIAN_POINT('',(1.740342529439,-13.87585951331));
#504 = CARTESIAN_POINT('',(1.79603448179,-13.86056569813));
#505 = CARTESIAN_POINT('',(1.851010294255,-13.84472539236));
#506 = CARTESIAN_POINT('',(1.943284808226,-13.81719224874));
#507 = CARTESIAN_POINT('',(1.981088379395,-13.80562989747));
#508 = CARTESIAN_POINT('',(2.018455360935,-13.79398354489));
#509 = CARTESIAN_POINT('',(2.055381881729,-13.78232261806));
#510 = CARTESIAN_POINT('',(2.091860111844,-13.770715426));
#511 = CARTESIAN_POINT('',(2.171172509359,-13.74541714441));
#512 = CARTESIAN_POINT('',(2.213811950969,-13.73177557301));
#513 = CARTESIAN_POINT('',(2.255837814131,-13.71839483315));
#514 = CARTESIAN_POINT('',(2.297284887851,-13.70535941038));
#515 = CARTESIAN_POINT('',(2.338183869652,-13.69274425673));
#516 = CARTESIAN_POINT('',(2.481963129399,-13.64955098158));
#517 = CARTESIAN_POINT('',(2.582124278306,-13.62161526834));
#518 = CARTESIAN_POINT('',(2.679804666841,-13.59781872021));
#519 = CARTESIAN_POINT('',(2.775566951474,-13.57881527942));
#520 = CARTESIAN_POINT('',(2.869958543938,-13.56496330699));
#521 = CARTESIAN_POINT('',(2.963499715359,-13.55641587236));
#522 = ( GEOMETRIC_REPRESENTATION_CONTEXT(2) 
PARAMETRIC_REPRESENTATION_CONTEXT() REPRESENTATION_CONTEXT('2D SPACE',''
  ) );
#523 = ORIENTED_EDGE('',*,*,#524,.F.);
#524 = EDGE_CURVE('',#525,#440,#527,.T.);
#525 = VERTEX_POINT('',#526);
#526 = CARTESIAN_POINT('',(-14.,0.,55.));
#527 = SURFACE_CURVE('',#528,(#533,#553),.PCURVE_S1.);
#528 = ELLIPSE('',#529,79.027733841034,14.);
#529 = AXIS2_PLACEMENT_3D('',#530,#531,#532);
#530 = CARTESIAN_POINT('',(0.,0.,132.77777777777));
#531 = DIRECTION('',(0.984183323974,0.,-0.177152998315));
#532 = DIRECTION('',(-0.177152998315,0.,-0.984183323974));
#533 = PCURVE('',#172,#534);
#534 = DEFINITIONAL_REPRESENTATION('',(#535),#552);
#535 = B_SPLINE_CURVE_WITH_KNOTS('',8,(#536,#537,#538,#539,#540,#541,
    #542,#543,#544,#545,#546,#547,#548,#549,#550,#551),.UNSPECIFIED.,.F.
  ,.F.,(9,7,9),(4.942984131371,6.28318530718,7.623386482988),
  .UNSPECIFIED.);
#536 = CARTESIAN_POINT('',(-4.481793829398,-115.0011252056));
#537 = CARTESIAN_POINT('',(-4.314268682422,-102.3162815458));
#538 = CARTESIAN_POINT('',(-4.146743535442,-90.20160394417));
#539 = CARTESIAN_POINT('',(-3.979218388467,-79.19956959656));
#540 = CARTESIAN_POINT('',(-3.8116932415,-69.8184807389));
#541 = CARTESIAN_POINT('',(-3.644168094515,-62.48390923705));
#542 = CARTESIAN_POINT('',(-3.47664294754,-57.49463845545));
#543 = CARTESIAN_POINT('',(-3.309117800566,-55.));
#544 = CARTESIAN_POINT('',(-2.974067506614,-55.));
#545 = CARTESIAN_POINT('',(-2.806542359634,-57.49463845547));
#546 = CARTESIAN_POINT('',(-2.63901721267,-62.48390923658));
#547 = CARTESIAN_POINT('',(-2.471492065673,-69.81848073954));
#548 = CARTESIAN_POINT('',(-2.303966918716,-79.19956959606));
#549 = CARTESIAN_POINT('',(-2.13644177173,-90.20160394423));
#550 = CARTESIAN_POINT('',(-1.968916624758,-102.3162815458));
#551 = CARTESIAN_POINT('',(-1.801391477782,-115.0011252056));
#552 = ( GEOMETRIC_REPRESENTATION_CONTEXT(2) 
PARAMETRIC_REPRESENTATION_CONTEXT() REPRESENTATION_CONTEXT('2D SPACE',''
  ) );
#553 = PCURVE('',#554,#559);
#554 = PLANE('',#555);
#555 = AXIS2_PLACEMENT_3D('',#556,#557,#558);
#556 = CARTESIAN_POINT('',(-8.748112460303,3.003063642735E-15,
    84.177152998315));
#557 = DIRECTION('',(0.984183323974,0.,-0.177152998315));
#558 = DIRECTION('',(0.177152998315,0.,0.984183323974));
#559 = DEFINITIONAL_REPRESENTATION('',(#560),#564);
#560 = ELLIPSE('',#561,79.027733841034,14.);
#561 = AXIS2_PLACEMENT_2D('',#562,#563);
#562 = CARTESIAN_POINT('',(49.381678794592,3.003063642735E-15));
#563 = DIRECTION('',(-1.,-0.));
#564 = ( GEOMETRIC_REPRESENTATION_CONTEXT(2) 
PARAMETRIC_REPRESENTATION_CONTEXT() REPRESENTATION_CONTEXT('2D SPACE',''
  ) );
#565 = ORIENTED_EDGE('',*,*,#566,.F.);
#566 = EDGE_CURVE('',#567,#525,#569,.T.);
#567 = VERTEX_POINT('',#568);
#568 = CARTESIAN_POINT('',(-3.496224920607,-13.55641587236,
    113.35430599663));
#569 = SURFACE_CURVE('',#570,(#575,#595),.PCURVE_S1.);
#570 = ELLIPSE('',#571,79.027733841034,14.);
#571 = AXIS2_PLACEMENT_3D('',#572,#573,#574);
#572 = CARTESIAN_POINT('',(0.,0.,132.77777777777));
#573 = DIRECTION('',(0.984183323974,0.,-0.177152998315));
#574 = DIRECTION('',(-0.177152998315,0.,-0.984183323974));
#575 = PCURVE('',#172,#576);
#576 = DEFINITIONAL_REPRESENTATION('',(#577),#594);
#577 = B_SPLINE_CURVE_WITH_KNOTS('',8,(#578,#579,#580,#581,#582,#583,
    #584,#585,#586,#587,#588,#589,#590,#591,#592,#593),.UNSPECIFIED.,.F.
  ,.F.,(9,7,9),(4.942984131371,6.28318530718,7.623386482988),
  .UNSPECIFIED.);
#578 = CARTESIAN_POINT('',(-4.481793829398,-115.0011252056));
#579 = CARTESIAN_POINT('',(-4.314268682422,-102.3162815458));
#580 = CARTESIAN_POINT('',(-4.146743535442,-90.20160394417));
#581 = CARTESIAN_POINT('',(-3.979218388467,-79.19956959656));
#582 = CARTESIAN_POINT('',(-3.8116932415,-69.8184807389));
#583 = CARTESIAN_POINT('',(-3.644168094515,-62.48390923705));
#584 = CARTESIAN_POINT('',(-3.47664294754,-57.49463845545));
#585 = CARTESIAN_POINT('',(-3.309117800566,-55.));
#586 = CARTESIAN_POINT('',(-2.974067506614,-55.));
#587 = CARTESIAN_POINT('',(-2.806542359634,-57.49463845547));
#588 = CARTESIAN_POINT('',(-2.63901721267,-62.48390923658));
#589 = CARTESIAN_POINT('',(-2.471492065673,-69.81848073954));
#590 = CARTESIAN_POINT('',(-2.303966918716,-79.19956959606));
#591 = CARTESIAN_POINT('',(-2.13644177173,-90.20160394423));
#592 = CARTESIAN_POINT('',(-1.968916624758,-102.3162815458));
#593 = CARTESIAN_POINT('',(-1.801391477782,-115.0011252056));
#594 = ( GEOMETRIC_REPRESENTATION_CONTEXT(2) 
PARAMETRIC_REPRESENTATION_CONTEXT() REPRESENTATION_CONTEXT('2D SPACE',''
  ) );
#595 = PCURVE('',#554,#596);
#596 = DEFINITIONAL_REPRESENTATION('',(#597),#601);
#597 = ELLIPSE('',#598,79.027733841034,14.);
#598 = AXIS2_PLACEMENT_2D('',#599,#600);
#599 = CARTESIAN_POINT('',(49.381678794592,3.003063642735E-15));
#600 = DIRECTION('',(-1.,-0.));
#601 = ( GEOMETRIC_REPRESENTATION_CONTEXT(2) 
PARAMETRIC_REPRESENTATION_CONTEXT() REPRESENTATION_CONTEXT('2D SPACE',''
  ) );
#602 = ORIENTED_EDGE('',*,*,#603,.F.);
#603 = EDGE_CURVE('',#604,#567,#606,.T.);
#604 = VERTEX_POINT('',#605);
#605 = CARTESIAN_POINT('',(-1.527858272659,-13.91638060339,115.));
#606 = SURFACE_CURVE('',#607,(#630,#656),.PCURVE_S1.);
#607 = B_SPLINE_CURVE_WITH_KNOTS('',6,(#608,#609,#610,#611,#612,#613,
    #614,#615,#616,#617,#618,#619,#620,#621,#622,#623,#624,#625,#626,
    #627,#628,#629),.UNSPECIFIED.,.F.,.F.,(7,5,5,5,7),(0.,0.211121857503
    ,0.360529700862,0.540125011809,1.),.UNSPECIFIED.);
#608 = CARTESIAN_POINT('',(-1.527858272659,-13.91638060339,115.));
#609 = CARTESIAN_POINT('',(-1.641369725242,-13.90391835356,115.));
#610 = CARTESIAN_POINT('',(-1.754514396975,-13.89037229011,
    114.99226903603));
#611 = CARTESIAN_POINT('',(-1.866292524913,-13.87585951331,
    114.97690107078));
#612 = CARTESIAN_POINT('',(-1.975723314804,-13.86056569813,
    114.95421838715));
#613 = CARTESIAN_POINT('',(-2.081888778272,-13.84472539236,
    114.92476732544));
#614 = CARTESIAN_POINT('',(-2.256224311229,-13.81719224874,
    114.86422423617));
#615 = CARTESIAN_POINT('',(-2.326495793098,-13.80562989747,
    114.83610534662));
#616 = CARTESIAN_POINT('',(-2.394650283183,-13.79398354489,
    114.80516553073));
#617 = CARTESIAN_POINT('',(-2.460565206038,-13.78232261806,
    114.7716196615));
#618 = CARTESIAN_POINT('',(-2.524136917263,-13.770715426,114.73568946641
    ));
#619 = CARTESIAN_POINT('',(-2.658777935768,-13.74541714441,
    114.65182277615));
#620 = CARTESIAN_POINT('',(-2.728784308919,-13.73177557301,
    114.60291651312));
#621 = CARTESIAN_POINT('',(-2.795257660188,-13.71839483315,
    114.55121142214));
#622 = CARTESIAN_POINT('',(-2.858176103538,-13.70535941038,
    114.49701099001));
#623 = CARTESIAN_POINT('',(-2.91753614881,-13.69274425673,
    114.44059630522));
#624 = CARTESIAN_POINT('',(-3.11627168,-13.64955098158,114.23276442418)
  );
#625 = CARTESIAN_POINT('',(-3.236171997908,-13.62161526834,
    114.07025015613));
#626 = CARTESIAN_POINT('',(-3.333525953185,-13.59781872021,
    113.89853874237));
#627 = CARTESIAN_POINT('',(-3.408971087093,-13.57881527942,
    113.72050521231));
#628 = CARTESIAN_POINT('',(-3.463082722641,-13.56496330699,
    113.53842931866));
#629 = CARTESIAN_POINT('',(-3.496224920607,-13.55641587236,
    113.35430599663));
#630 = PCURVE('',#172,#631);
#631 = DEFINITIONAL_REPRESENTATION('',(#632),#655);
#632 = B_SPLINE_CURVE_WITH_KNOTS('',6,(#633,#634,#635,#636,#637,#638,
    #639,#640,#641,#642,#643,#644,#645,#646,#647,#648,#649,#650,#651,
    #652,#653,#654),.UNSPECIFIED.,.F.,.F.,(7,5,5,5,7),(0.,0.211121857503
    ,0.360529700862,0.540125011809,1.),.UNSPECIFIED.);
#633 = CARTESIAN_POINT('',(-4.603038449682,-115.));
#634 = CARTESIAN_POINT('',(-4.594881770455,-115.));
#635 = CARTESIAN_POINT('',(-4.586742688269,-114.992269036));
#636 = CARTESIAN_POINT('',(-4.578692108528,-114.9769010707));
#637 = CARTESIAN_POINT('',(-4.570800187988,-114.9542183871));
#638 = CARTESIAN_POINT('',(-4.563133272558,-114.9247673254));
#639 = CARTESIAN_POINT('',(-4.550526392341,-114.8642242361));
#640 = CARTESIAN_POINT('',(-4.545439615607,-114.8361053466));
#641 = CARTESIAN_POINT('',(-4.540501007579,-114.8051655307));
#642 = CARTESIAN_POINT('',(-4.535719803687,-114.7716196615));
#643 = CARTESIAN_POINT('',(-4.531103959306,-114.7356894664));
#644 = CARTESIAN_POINT('',(-4.521318451771,-114.6518227761));
#645 = CARTESIAN_POINT('',(-4.516224059666,-114.6029165131));
#646 = CARTESIAN_POINT('',(-4.511380852056,-114.5512114221));
#647 = CARTESIAN_POINT('',(-4.506791333039,-114.49701099));
#648 = CARTESIAN_POINT('',(-4.502456684459,-114.4405963052));
#649 = CARTESIAN_POINT('',(-4.48792988474,-114.2327644241));
#650 = CARTESIAN_POINT('',(-4.479137166751,-114.0702501561));
#651 = CARTESIAN_POINT('',(-4.471978906733,-113.8985387423));
#652 = CARTESIAN_POINT('',(-4.466421710829,-113.7205052123));
#653 = CARTESIAN_POINT('',(-4.462431968121,-113.5384293186));
#654 = CARTESIAN_POINT('',(-4.459987207037,-113.3543059966));
#655 = ( GEOMETRIC_REPRESENTATION_CONTEXT(2) 
PARAMETRIC_REPRESENTATION_CONTEXT() REPRESENTATION_CONTEXT('2D SPACE',''
  ) );
#656 = PCURVE('',#493,#657);
#657 = DEFINITIONAL_REPRESENTATION('',(#658),#681);
#658 = B_SPLINE_CURVE_WITH_KNOTS('',6,(#659,#660,#661,#662,#663,#664,
    #665,#666,#667,#668,#669,#670,#671,#672,#673,#674,#675,#676,#677,
    #678,#679,#680),.UNSPECIFIED.,.F.,.F.,(7,5,5,5,7),(0.,0.211121857503
    ,0.360529700862,0.540125011809,1.),.UNSPECIFIED.);
#659 = CARTESIAN_POINT('',(1.570796326795,13.916380603399));
#660 = CARTESIAN_POINT('',(1.627552053087,13.903918353565));
#661 = CARTESIAN_POINT('',(1.684124398604,13.890372290119));
#662 = CARTESIAN_POINT('',(1.740342529432,13.875859513312));
#663 = CARTESIAN_POINT('',(1.796034481788,13.860565698138));
#664 = CARTESIAN_POINT('',(1.851010294262,13.844725392363));
#665 = CARTESIAN_POINT('',(1.943284808226,13.81719224874));
#666 = CARTESIAN_POINT('',(1.981088379395,13.805629897475));
#667 = CARTESIAN_POINT('',(2.018455360935,13.793983544897));
#668 = CARTESIAN_POINT('',(2.055381881729,13.782322618066));
#669 = CARTESIAN_POINT('',(2.091860111844,13.770715426009));
#670 = CARTESIAN_POINT('',(2.171172509359,13.745417144414));
#671 = CARTESIAN_POINT('',(2.213811950969,13.731775573017));
#672 = CARTESIAN_POINT('',(2.255837814131,13.718394833157));
#673 = CARTESIAN_POINT('',(2.297284887851,13.705359410388));
#674 = CARTESIAN_POINT('',(2.338183869652,13.692744256738));
#675 = CARTESIAN_POINT('',(2.481963129398,13.649550981586));
#676 = CARTESIAN_POINT('',(2.582124278305,13.621615268348));
#677 = CARTESIAN_POINT('',(2.679804666841,13.597818720219));
#678 = CARTESIAN_POINT('',(2.775566951475,13.578815279422));
#679 = CARTESIAN_POINT('',(2.869958543939,13.564963306993));
#680 = CARTESIAN_POINT('',(2.963499715359,13.556415872366));
#681 = ( GEOMETRIC_REPRESENTATION_CONTEXT(2) 
PARAMETRIC_REPRESENTATION_CONTEXT() REPRESENTATION_CONTEXT('2D SPACE',''
  ) );
#682 = ORIENTED_EDGE('',*,*,#683,.T.);
#683 = EDGE_CURVE('',#604,#684,#686,.T.);
#684 = VERTEX_POINT('',#685);
#685 = CARTESIAN_POINT('',(1.527858272659,-13.91638060339,115.));
#686 = SURFACE_CURVE('',#687,(#692,#699),.PCURVE_S1.);
#687 = CIRCLE('',#688,14.);
#688 = AXIS2_PLACEMENT_3D('',#689,#690,#691);
#689 = CARTESIAN_POINT('',(0.,0.,115.));
#690 = DIRECTION('',(0.,0.,1.));
#691 = DIRECTION('',(1.,0.,0.));
#692 = PCURVE('',#172,#693);
#693 = DEFINITIONAL_REPRESENTATION('',(#694),#698);
#694 = LINE('',#695,#696);
#695 = CARTESIAN_POINT('',(-0.,-115.));
#696 = VECTOR('',#697,1.);
#697 = DIRECTION('',(-1.,0.));
#698 = ( GEOMETRIC_REPRESENTATION_CONTEXT(2) 
PARAMETRIC_REPRESENTATION_CONTEXT() REPRESENTATION_CONTEXT('2D SPACE',''
  ) );
#699 = PCURVE('',#427,#700);
#700 = DEFINITIONAL_REPRESENTATION('',(#701),#705);
#701 = CIRCLE('',#702,14.);
#702 = AXIS2_PLACEMENT_2D('',#703,#704);
#703 = CARTESIAN_POINT('',(3.906971807255E-16,-9.912868833001E-16));
#704 = DIRECTION('',(1.,0.));
#705 = ( GEOMETRIC_REPRESENTATION_CONTEXT(2) 
PARAMETRIC_REPRESENTATION_CONTEXT() REPRESENTATION_CONTEXT('2D SPACE',''
  ) );
#706 = ORIENTED_EDGE('',*,*,#707,.F.);
#707 = EDGE_CURVE('',#708,#684,#710,.T.);
#708 = VERTEX_POINT('',#709);
#709 = CARTESIAN_POINT('',(3.496224920607,-13.55641587236,
    113.35430599663));
#710 = SURFACE_CURVE('',#711,(#734,#760),.PCURVE_S1.);
#711 = B_SPLINE_CURVE_WITH_KNOTS('',6,(#712,#713,#714,#715,#716,#717,
    #718,#719,#720,#721,#722,#723,#724,#725,#726,#727,#728,#729,#730,
    #731,#732,#733),.UNSPECIFIED.,.F.,.F.,(7,5,5,5,7),(0.,0.460102048091
    ,0.639625491943,0.779896973321,1.),.UNSPECIFIED.);
#712 = CARTESIAN_POINT('',(3.496224920607,-13.55641587236,
    113.35430599663));
#713 = CARTESIAN_POINT('',(3.463042559041,-13.56497366526,
    113.53865244977));
#714 = CARTESIAN_POINT('',(3.408895108491,-13.57883468803,
    113.72064087157));
#715 = CARTESIAN_POINT('',(3.333508147206,-13.59782205999,
    113.89849520562));
#716 = CARTESIAN_POINT('',(3.236258478351,-13.621593053,114.0700930731)
  );
#717 = CARTESIAN_POINT('',(3.116399488466,-13.64952320363,
    114.23263076578));
#718 = CARTESIAN_POINT('',(2.91753614881,-13.69274425673,114.44059630522
    ));
#719 = CARTESIAN_POINT('',(2.858176103538,-13.70535941038,
    114.49701099001));
#720 = CARTESIAN_POINT('',(2.795257660187,-13.71839483315,
    114.55121142214));
#721 = CARTESIAN_POINT('',(2.728784308919,-13.73177557301,
    114.60291651312));
#722 = CARTESIAN_POINT('',(2.658777935768,-13.74541714441,
    114.65182277615));
#723 = CARTESIAN_POINT('',(2.52785289529,-13.77001721487,114.73337481682
    ));
#724 = CARTESIAN_POINT('',(2.468287232727,-13.78091147891,
    114.76724198696));
#725 = CARTESIAN_POINT('',(2.406651753059,-13.79185636325,
    114.79901779522));
#726 = CARTESIAN_POINT('',(2.343029080651,-13.80279588953,
    114.82851957191));
#727 = CARTESIAN_POINT('',(2.277516395824,-13.81367303998,
    114.85556926011));
#728 = CARTESIAN_POINT('',(2.104638227527,-13.84131249568,
    114.91831757899));
#729 = CARTESIAN_POINT('',(1.994496906428,-13.85792964741,
    114.95024102336));
#730 = CARTESIAN_POINT('',(1.880694255326,-13.87398303741,
    114.97487593439));
#731 = CARTESIAN_POINT('',(1.76425152549,-13.8892042562,114.99158770107)
  );
#732 = CARTESIAN_POINT('',(1.646265984897,-13.90338080066,115.));
#733 = CARTESIAN_POINT('',(1.527858272659,-13.91638060339,115.));
#734 = PCURVE('',#172,#735);
#735 = DEFINITIONAL_REPRESENTATION('',(#736),#759);
#736 = B_SPLINE_CURVE_WITH_KNOTS('',6,(#737,#738,#739,#740,#741,#742,
    #743,#744,#745,#746,#747,#748,#749,#750,#751,#752,#753,#754,#755,
    #756,#757,#758),.UNSPECIFIED.,.F.,.F.,(7,5,5,5,7),(0.,0.460102048091
    ,0.639625491943,0.779896973321,1.),.UNSPECIFIED.);
#737 = CARTESIAN_POINT('',(-4.964790753733,-113.3543059966));
#738 = CARTESIAN_POINT('',(-4.962343029948,-113.5386524497));
#739 = CARTESIAN_POINT('',(-4.958350648284,-113.7206408715));
#740 = CARTESIAN_POINT('',(-4.952797764194,-113.8984952056));
#741 = CARTESIAN_POINT('',(-4.945647167771,-114.0700930731));
#742 = CARTESIAN_POINT('',(-4.936857418335,-114.2326307657));
#743 = CARTESIAN_POINT('',(-4.92232127631,-114.4405963052));
#744 = CARTESIAN_POINT('',(-4.917986627731,-114.49701099));
#745 = CARTESIAN_POINT('',(-4.913397108713,-114.5512114221));
#746 = CARTESIAN_POINT('',(-4.908553901103,-114.6029165131));
#747 = CARTESIAN_POINT('',(-4.903459508999,-114.6518227761));
#748 = CARTESIAN_POINT('',(-4.893944073179,-114.7333748168));
#749 = CARTESIAN_POINT('',(-4.889618857723,-114.7672419869));
#750 = CARTESIAN_POINT('',(-4.885147542917,-114.7990177952));
#751 = CARTESIAN_POINT('',(-4.880536487422,-114.8285195719));
#752 = CARTESIAN_POINT('',(-4.875793035704,-114.8555692601));
#753 = CARTESIAN_POINT('',(-4.863287771387,-114.9183175789));
#754 = CARTESIAN_POINT('',(-4.855331804323,-114.9502410233));
#755 = CARTESIAN_POINT('',(-4.847123164184,-114.9748759343));
#756 = CARTESIAN_POINT('',(-4.838735731531,-114.991587701));
#757 = CARTESIAN_POINT('',(-4.830248024588,-115.));
#758 = CARTESIAN_POINT('',(-4.821739511087,-115.));
#759 = ( GEOMETRIC_REPRESENTATION_CONTEXT(2) 
PARAMETRIC_REPRESENTATION_CONTEXT() REPRESENTATION_CONTEXT('2D SPACE',''
  ) );
#760 = PCURVE('',#379,#761);
#761 = DEFINITIONAL_REPRESENTATION('',(#762),#785);
#762 = B_SPLINE_CURVE_WITH_KNOTS('',6,(#763,#764,#765,#766,#767,#768,
    #769,#770,#771,#772,#773,#774,#775,#776,#777,#778,#779,#780,#781,
    #782,#783,#784),.UNSPECIFIED.,.F.,.F.,(7,5,5,5,7),(0.,0.460102048091
    ,0.639625491943,0.779896973321,1.),.UNSPECIFIED.);
#763 = CARTESIAN_POINT('',(0.178092938231,13.556415872366));
#764 = CARTESIAN_POINT('',(0.271747468161,13.564973665261));
#765 = CARTESIAN_POINT('',(0.366099233261,13.578834688039));
#766 = CARTESIAN_POINT('',(0.461773297479,13.597822059992));
#767 = CARTESIAN_POINT('',(0.559381659038,13.621593053001));
#768 = CARTESIAN_POINT('',(0.65953705856,13.649523203633));
#769 = CARTESIAN_POINT('',(0.803408783938,13.692744256738));
#770 = CARTESIAN_POINT('',(0.844307765739,13.705359410388));
#771 = CARTESIAN_POINT('',(0.885754839459,13.718394833157));
#772 = CARTESIAN_POINT('',(0.927780702621,13.731775573017));
#773 = CARTESIAN_POINT('',(0.97042014423,13.745417144414));
#774 = CARTESIAN_POINT('',(1.047543586778,13.770017214873));
#775 = CARTESIAN_POINT('',(1.081776276792,13.780911478914));
#776 = CARTESIAN_POINT('',(1.116404243567,13.791856363254));
#777 = CARTESIAN_POINT('',(1.151422075778,13.802795889539));
#778 = CARTESIAN_POINT('',(1.18682739126,13.813673039985));
#779 = CARTESIAN_POINT('',(1.278784191709,13.841312495683));
#780 = CARTESIAN_POINT('',(1.335996284582,13.857929647412));
#781 = CARTESIAN_POINT('',(1.394004818451,13.873983037412));
#782 = CARTESIAN_POINT('',(1.452599684543,13.889204256205));
#783 = CARTESIAN_POINT('',(1.511592470676,13.90338080066));
#784 = CARTESIAN_POINT('',(1.570796326795,13.916380603399));
#785 = ( GEOMETRIC_REPRESENTATION_CONTEXT(2) 
PARAMETRIC_REPRESENTATION_CONTEXT() REPRESENTATION_CONTEXT('2D SPACE',''
  ) );
#786 = ORIENTED_EDGE('',*,*,#787,.F.);
#787 = EDGE_CURVE('',#268,#708,#788,.T.);
#788 = SURFACE_CURVE('',#789,(#794,#807),.PCURVE_S1.);
#789 = ELLIPSE('',#790,79.027733841034,14.);
#790 = AXIS2_PLACEMENT_3D('',#791,#792,#793);
#791 = CARTESIAN_POINT('',(0.,0.,132.77777777777));
#792 = DIRECTION('',(-0.984183323974,-0.,-0.177152998315));
#793 = DIRECTION('',(0.177152998315,0.,-0.984183323974));
#794 = PCURVE('',#172,#795);
#795 = DEFINITIONAL_REPRESENTATION('',(#796),#806);
#796 = B_SPLINE_CURVE_WITH_KNOTS('',8,(#797,#798,#799,#800,#801,#802,
    #803,#804,#805),.UNSPECIFIED.,.F.,.F.,(9,9),(0.,1.340201175808),
  .PIECEWISE_BEZIER_KNOTS.);
#797 = CARTESIAN_POINT('',(-6.28318530718,-55.));
#798 = CARTESIAN_POINT('',(-6.115660160204,-55.));
#799 = CARTESIAN_POINT('',(-5.948135013228,-57.49463845544));
#800 = CARTESIAN_POINT('',(-5.780609866252,-62.4839092367));
#801 = CARTESIAN_POINT('',(-5.613084719278,-69.81848073907));
#802 = CARTESIAN_POINT('',(-5.445559572301,-79.19956959618));
#803 = CARTESIAN_POINT('',(-5.278034425324,-90.20160394418));
#804 = CARTESIAN_POINT('',(-5.110509278347,-102.3162815458));
#805 = CARTESIAN_POINT('',(-4.942984131371,-115.0011252056));
#806 = ( GEOMETRIC_REPRESENTATION_CONTEXT(2) 
PARAMETRIC_REPRESENTATION_CONTEXT() REPRESENTATION_CONTEXT('2D SPACE',''
  ) );
#807 = PCURVE('',#313,#808);
#808 = DEFINITIONAL_REPRESENTATION('',(#809),#813);
#809 = ELLIPSE('',#810,79.027733841034,14.);
#810 = AXIS2_PLACEMENT_2D('',#811,#812);
#811 = CARTESIAN_POINT('',(-49.38167879459,0.));
#812 = DIRECTION('',(1.,0.));
#813 = ( GEOMETRIC_REPRESENTATION_CONTEXT(2) 
PARAMETRIC_REPRESENTATION_CONTEXT() REPRESENTATION_CONTEXT('2D SPACE',''
  ) );
#814 = ORIENTED_EDGE('',*,*,#267,.F.);
#815 = ADVANCED_FACE('',(#816),#227,.F.);
#816 = FACE_BOUND('',#817,.T.);
#817 = EDGE_LOOP('',(#818,#819,#842));
#818 = ORIENTED_EDGE('',*,*,#212,.T.);
#819 = ORIENTED_EDGE('',*,*,#820,.T.);
#820 = EDGE_CURVE('',#188,#821,#823,.T.);
#821 = VERTEX_POINT('',#822);
#822 = CARTESIAN_POINT('',(0.,0.,52.302581857083));
#823 = SEAM_CURVE('',#824,(#828,#835),.PCURVE_S1.);
#824 = LINE('',#825,#826);
#825 = CARTESIAN_POINT('',(-3.,0.,50.5));
#826 = VECTOR('',#827,1.);
#827 = DIRECTION('',(0.857167300702,0.,0.51503807491));
#828 = PCURVE('',#227,#829);
#829 = DEFINITIONAL_REPRESENTATION('',(#830),#834);
#830 = LINE('',#831,#832);
#831 = CARTESIAN_POINT('',(0.,-0.));
#832 = VECTOR('',#833,1.);
#833 = DIRECTION('',(0.,-1.));
#834 = ( GEOMETRIC_REPRESENTATION_CONTEXT(2) 
PARAMETRIC_REPRESENTATION_CONTEXT() REPRESENTATION_CONTEXT('2D SPACE',''
  ) );
#835 = PCURVE('',#227,#836);
#836 = DEFINITIONAL_REPRESENTATION('',(#837),#841);
#837 = LINE('',#838,#839);
#838 = CARTESIAN_POINT('',(6.28318530718,-0.));
#839 = VECTOR('',#840,1.);
#840 = DIRECTION('',(0.,-1.));
#841 = ( GEOMETRIC_REPRESENTATION_CONTEXT(2) 
PARAMETRIC_REPRESENTATION_CONTEXT() REPRESENTATION_CONTEXT('2D SPACE',''
  ) );
#842 = ORIENTED_EDGE('',*,*,#820,.F.);
#843 = ADVANCED_FACE('',(#844),#313,.F.);
#844 = FACE_BOUND('',#845,.F.);
#845 = EDGE_LOOP('',(#846,#867,#868));
#846 = ORIENTED_EDGE('',*,*,#847,.F.);
#847 = EDGE_CURVE('',#291,#708,#848,.T.);
#848 = SURFACE_CURVE('',#849,(#853,#860),.PCURVE_S1.);
#849 = LINE('',#850,#851);
#850 = CARTESIAN_POINT('',(3.496224920607,2.516971209157E-14,
    113.35430599663));
#851 = VECTOR('',#852,1.);
#852 = DIRECTION('',(0.,-1.,2.22044604925E-16));
#853 = PCURVE('',#313,#854);
#854 = DEFINITIONAL_REPRESENTATION('',(#855),#859);
#855 = LINE('',#856,#857);
#856 = CARTESIAN_POINT('',(-29.64605504644,-2.516971209157E-14));
#857 = VECTOR('',#858,1.);
#858 = DIRECTION('',(-2.185325973455E-16,1.));
#859 = ( GEOMETRIC_REPRESENTATION_CONTEXT(2) 
PARAMETRIC_REPRESENTATION_CONTEXT() REPRESENTATION_CONTEXT('2D SPACE',''
  ) );
#860 = PCURVE('',#379,#861);
#861 = DEFINITIONAL_REPRESENTATION('',(#862),#866);
#862 = LINE('',#863,#864);
#863 = CARTESIAN_POINT('',(0.178092938231,0.));
#864 = VECTOR('',#865,1.);
#865 = DIRECTION('',(0.,1.));
#866 = ( GEOMETRIC_REPRESENTATION_CONTEXT(2) 
PARAMETRIC_REPRESENTATION_CONTEXT() REPRESENTATION_CONTEXT('2D SPACE',''
  ) );
#867 = ORIENTED_EDGE('',*,*,#290,.T.);
#868 = ORIENTED_EDGE('',*,*,#787,.T.);
#869 = ADVANCED_FACE('',(#870),#379,.T.);
#870 = FACE_BOUND('',#871,.T.);
#871 = EDGE_LOOP('',(#872,#873,#874,#895));
#872 = ORIENTED_EDGE('',*,*,#847,.F.);
#873 = ORIENTED_EDGE('',*,*,#325,.T.);
#874 = ORIENTED_EDGE('',*,*,#875,.F.);
#875 = EDGE_CURVE('',#684,#326,#876,.T.);
#876 = SURFACE_CURVE('',#877,(#881,#888),.PCURVE_S1.);
#877 = LINE('',#878,#879);
#878 = CARTESIAN_POINT('',(1.527858272659,2.553512956638E-14,115.));
#879 = VECTOR('',#880,1.);
#880 = DIRECTION('',(0.,1.,-2.22044604925E-16));
#881 = PCURVE('',#379,#882);
#882 = DEFINITIONAL_REPRESENTATION('',(#883),#887);
#883 = LINE('',#884,#885);
#884 = CARTESIAN_POINT('',(1.570796326795,0.));
#885 = VECTOR('',#886,1.);
#886 = DIRECTION('',(0.,-1.));
#887 = ( GEOMETRIC_REPRESENTATION_CONTEXT(2) 
PARAMETRIC_REPRESENTATION_CONTEXT() REPRESENTATION_CONTEXT('2D SPACE',''
  ) );
#888 = PCURVE('',#427,#889);
#889 = DEFINITIONAL_REPRESENTATION('',(#890),#894);
#890 = LINE('',#891,#892);
#891 = CARTESIAN_POINT('',(1.527858272659,2.454384268308E-14));
#892 = VECTOR('',#893,1.);
#893 = DIRECTION('',(0.,1.));
#894 = ( GEOMETRIC_REPRESENTATION_CONTEXT(2) 
PARAMETRIC_REPRESENTATION_CONTEXT() REPRESENTATION_CONTEXT('2D SPACE',''
  ) );
#895 = ORIENTED_EDGE('',*,*,#707,.F.);
#896 = ADVANCED_FACE('',(#897),#427,.T.);
#897 = FACE_BOUND('',#898,.T.);
#898 = EDGE_LOOP('',(#899,#900,#901,#922));
#899 = ORIENTED_EDGE('',*,*,#875,.T.);
#900 = ORIENTED_EDGE('',*,*,#410,.T.);
#901 = ORIENTED_EDGE('',*,*,#902,.T.);
#902 = EDGE_CURVE('',#411,#604,#903,.T.);
#903 = SURFACE_CURVE('',#904,(#908,#915),.PCURVE_S1.);
#904 = LINE('',#905,#906);
#905 = CARTESIAN_POINT('',(-1.527858272659,2.553512956638E-14,115.));
#906 = VECTOR('',#907,1.);
#907 = DIRECTION('',(0.,-1.,2.22044604925E-16));
#908 = PCURVE('',#427,#909);
#909 = DEFINITIONAL_REPRESENTATION('',(#910),#914);
#910 = LINE('',#911,#912);
#911 = CARTESIAN_POINT('',(-1.527858272659,2.454384268308E-14));
#912 = VECTOR('',#913,1.);
#913 = DIRECTION('',(0.,-1.));
#914 = ( GEOMETRIC_REPRESENTATION_CONTEXT(2) 
PARAMETRIC_REPRESENTATION_CONTEXT() REPRESENTATION_CONTEXT('2D SPACE',''
  ) );
#915 = PCURVE('',#493,#916);
#916 = DEFINITIONAL_REPRESENTATION('',(#917),#921);
#917 = LINE('',#918,#919);
#918 = CARTESIAN_POINT('',(1.570796326795,0.));
#919 = VECTOR('',#920,1.);
#920 = DIRECTION('',(0.,1.));
#921 = ( GEOMETRIC_REPRESENTATION_CONTEXT(2) 
PARAMETRIC_REPRESENTATION_CONTEXT() REPRESENTATION_CONTEXT('2D SPACE',''
  ) );
#922 = ORIENTED_EDGE('',*,*,#683,.T.);
#923 = ADVANCED_FACE('',(#924),#493,.T.);
#924 = FACE_BOUND('',#925,.T.);
#925 = EDGE_LOOP('',(#926,#927,#928,#949));
#926 = ORIENTED_EDGE('',*,*,#902,.F.);
#927 = ORIENTED_EDGE('',*,*,#439,.T.);
#928 = ORIENTED_EDGE('',*,*,#929,.F.);
#929 = EDGE_CURVE('',#567,#440,#930,.T.);
#930 = SURFACE_CURVE('',#931,(#935,#942),.PCURVE_S1.);
#931 = LINE('',#932,#933);
#932 = CARTESIAN_POINT('',(-3.496224920607,2.516971209157E-14,
    113.35430599663));
#933 = VECTOR('',#934,1.);
#934 = DIRECTION('',(0.,1.,-2.22044604925E-16));
#935 = PCURVE('',#493,#936);
#936 = DEFINITIONAL_REPRESENTATION('',(#937),#941);
#937 = LINE('',#938,#939);
#938 = CARTESIAN_POINT('',(2.963499715359,0.));
#939 = VECTOR('',#940,1.);
#940 = DIRECTION('',(0.,-1.));
#941 = ( GEOMETRIC_REPRESENTATION_CONTEXT(2) 
PARAMETRIC_REPRESENTATION_CONTEXT() REPRESENTATION_CONTEXT('2D SPACE',''
  ) );
#942 = PCURVE('',#554,#943);
#943 = DEFINITIONAL_REPRESENTATION('',(#944),#948);
#944 = LINE('',#945,#946);
#945 = CARTESIAN_POINT('',(29.646055046443,-2.216664844884E-14));
#946 = VECTOR('',#947,1.);
#947 = DIRECTION('',(-2.185325973455E-16,-1.));
#948 = ( GEOMETRIC_REPRESENTATION_CONTEXT(2) 
PARAMETRIC_REPRESENTATION_CONTEXT() REPRESENTATION_CONTEXT('2D SPACE',''
  ) );
#949 = ORIENTED_EDGE('',*,*,#603,.F.);
#950 = ADVANCED_FACE('',(#951),#554,.F.);
#951 = FACE_BOUND('',#952,.F.);
#952 = EDGE_LOOP('',(#953,#954,#955));
#953 = ORIENTED_EDGE('',*,*,#929,.F.);
#954 = ORIENTED_EDGE('',*,*,#566,.T.);
#955 = ORIENTED_EDGE('',*,*,#524,.T.);
#956 = ( GEOMETRIC_REPRESENTATION_CONTEXT(3) 
GLOBAL_UNCERTAINTY_ASSIGNED_CONTEXT((#960)) GLOBAL_UNIT_ASSIGNED_CONTEXT
((#957,#958,#959)) REPRESENTATION_CONTEXT('Context #1',
  '3D Context with UNIT and UNCERTAINTY') );
#957 = ( LENGTH_UNIT() NAMED_UNIT(*) SI_UNIT(.MILLI.,.METRE.) );
#958 = ( NAMED_UNIT(*) PLANE_ANGLE_UNIT() SI_UNIT($,.RADIAN.) );
#959 = ( NAMED_UNIT(*) SI_UNIT($,.STERADIAN.) SOLID_ANGLE_UNIT() );
#960 = UNCERTAINTY_MEASURE_WITH_UNIT(LENGTH_MEASURE(1.E-07),#957,
  'distance_accuracy_value','confusion accuracy');
#961 = PRODUCT_RELATED_PRODUCT_CATEGORY('part',$,(#7));
#962 = MECHANICAL_DESIGN_GEOMETRIC_PRESENTATION_REPRESENTATION('',(#963)
  ,#956);
#963 = STYLED_ITEM('color',(#964),#15);
#964 = PRESENTATION_STYLE_ASSIGNMENT((#965,#971));
#965 = SURFACE_STYLE_USAGE(.BOTH.,#966);
#966 = SURFACE_SIDE_STYLE('',(#967));
#967 = SURFACE_STYLE_FILL_AREA(#968);
#968 = FILL_AREA_STYLE('',(#969));
#969 = FILL_AREA_STYLE_COLOUR('',#970);
#970 = DRAUGHTING_PRE_DEFINED_COLOUR('red');
#971 = CURVE_STYLE('',#972,POSITIVE_LENGTH_MEASURE(0.1),#973);
#972 = DRAUGHTING_PRE_DEFINED_CURVE_FONT('continuous');
#973 = COLOUR_RGB('',9.803921802644E-02,9.803921802644E-02,
  9.803921802644E-02);
ENDSEC;
END-ISO-10303-21;
